<svg xmlns="http://www.w3.org/2000/svg" width="16" height="16" viewBox="0 0 4.2333333 4.2333333" version="1.1" id="svg8"><metadata id="metadata5"/><g id="layer1"><ellipse style="fill:#00ff8a;fill-opacity:1;stroke:#000001;stroke-width:0.141;stroke-miterlimit:4;stroke-dasharray:none;stroke-opacity:1" id="path833" cx="2.1213827" cy="2.1489346" rx="2.0570686" ry="2.0345693"/><g aria-label="W" transform="matrix(0.57370527,0,0,0.76026918,0.11106414,0.56309824)" id="text1524" style="font-style:normal;font-weight:normal;font-size:3.24164px;line-height:1.25;font-family:sans-serif;fill:#000000;fill-opacity:1;stroke:none;stroke-width:0.1;stroke-miterlimit:4;stroke-dasharray:none"><path d="M 3.7844865,0.85277827 3.1719305,3.2096152 H 2.8189589 L 2.3235325,1.2532348 1.8391859,3.2096152 H 1.4941285 L 0.87049266,0.85277827 H 1.1918076 L 1.687234,2.8123244 2.1747463,0.85277827 H 2.4928955 L 2.9851563,2.8313184 3.4774171,0.85277827 Z" style="fill:#000000;stroke-width:0.1;stroke-miterlimit:4;stroke-dasharray:none" id="path1526"/></g><g style="font-style:normal;font-weight:normal;font-size:2.38201px;line-height:1.25;font-family:sans-serif;fill:#000000;fill-opacity:1;stroke:none;stroke-width:0.0595507" id="text2558" transform="scale(0.9124504,1.09595)" aria-label="O"><path id="path2560" style="stroke-width:0.0595507" d="m 3.8878763,1.2677627 q 0.1058412,0.1163091 0.1616696,0.2849573 0.056991,0.1686481 0.056991,0.3826568 0,0.2140087 -0.058155,0.38382 -0.056991,0.1686482 -0.1605065,0.281468 -0.1070044,0.1174722 -0.2535538,0.1767898 -0.1453864,0.059318 -0.332644,0.059318 -0.1826053,0 -0.332644,-0.060481 Q 2.8201589,2.7158108 2.7154807,2.6006648 2.6108025,2.4855188 2.5538111,2.3180337 2.4979827,2.1505486 2.4979827,1.9353768 q 0,-0.2116825 0.055828,-0.3791676 0.055828,-0.1686481 0.1628327,-0.2884465 0.102352,-0.1139829 0.2535538,-0.1744636 0.1523649,-0.060481 0.3314809,-0.060481 0.1860945,0 0.3338071,0.061644 0.1488756,0.060481 0.2523907,0.1733005 z m -0.020936,0.6676141 q 0,-0.3372963 -0.1512018,-0.5199016 Q 3.564537,1.2317069 3.3028416,1.2317069 q -0.2640216,0 -0.4152234,0.1837683 -0.1500388,0.1826053 -0.1500388,0.5199016 0,0.3407856 0.153528,0.5222278 0.153528,0.1802791 0.4117342,0.1802791 0.2582061,0 0.410571,-0.1802791 0.153528,-0.1814422 0.153528,-0.5222278 z"/></g></g></svg>